<svg version="1.1" id="Layer_1" xmlns="http://www.w3.org/2000/svg" xmlns:xlink="http://www.w3.org/1999/xlink" x="0px" y="0px"
	 width="100%" viewBox="0 0 2133 1010" enable-background="new 0 0 2133 1010" xml:space="preserve">
<path fill="#FFFFFF" opacity="1.000000" stroke="none" 
	d="
M1476.000000,1011.000000 
	C984.000061,1011.000000 492.500183,1011.000000 1.000198,1011.000000 
	C1.000132,674.333496 1.000132,337.666962 1.000066,1.000333 
	C711.999756,1.000222 1422.999512,1.000222 2133.999512,1.000111 
	C2133.999512,337.666351 2133.999512,674.332703 2133.999756,1010.999512 
	C1914.833374,1011.000000 1695.666626,1011.000000 1476.000000,1011.000000 
M748.500000,728.000000 
	C781.996521,728.000000 815.493591,727.900940 848.988831,728.108521 
	C853.920166,728.139099 855.471985,726.598450 855.075745,721.850281 
	C854.716614,717.547119 855.259277,713.165405 854.847351,708.871704 
	C854.715393,707.496338 852.987976,705.420837 851.681335,705.148315 
	C842.404602,703.213379 832.905273,702.213684 823.753540,699.846558 
	C813.215820,697.120850 804.197571,691.898132 801.548462,680.012451 
	C801.158569,678.263184 801.022095,676.423950 801.021667,674.626221 
	C800.997131,581.130615 800.921143,487.634918 801.096985,394.139679 
	C801.119690,382.072113 806.590515,374.271149 817.155090,371.533112 
	C829.129700,368.429596 841.338318,366.228760 853.614929,363.599121 
	C853.614929,357.325409 853.614929,350.275635 853.614929,343.242737 
	C796.614197,343.242737 739.998901,343.242737 683.704468,343.242737 
	C680.647522,355.587402 678.712646,368.009216 674.490295,379.597565 
	C661.230591,415.989441 647.191162,452.098755 633.297913,488.257660 
	C621.982544,517.707214 610.446533,547.071960 599.000793,576.471375 
	C596.740601,582.276917 594.445740,588.068909 591.703918,595.045227 
	C582.267273,569.714539 573.378784,545.825623 564.468567,521.944885 
	C553.156494,491.626801 541.830383,461.314026 530.503723,431.001404 
	C520.149597,403.291473 509.690399,375.620026 499.542328,347.834900 
	C498.178619,344.101166 496.660461,342.882355 492.636444,342.893707 
	C436.972870,343.050964 381.308655,343.000000 325.644623,343.000000 
	C323.878174,343.000000 322.111755,343.000000 320.391907,343.000000 
	C320.391907,350.713470 320.391907,357.767303 320.391907,364.453522 
	C326.346252,365.343933 331.860596,366.193848 337.382721,366.990021 
	C364.238342,370.862244 381.700226,388.516357 381.864685,416.550629 
	C382.275208,486.544922 382.149231,556.543823 381.864380,626.539368 
	C381.812225,639.350586 380.989746,652.330933 378.760803,664.921265 
	C375.304688,684.443542 368.325745,693.786682 346.361938,699.916016 
	C336.958649,702.540222 327.196777,703.879272 317.000000,705.921997 
	C317.000000,710.717590 316.997925,716.007080 317.000549,721.296570 
	C317.003845,727.991882 317.005463,727.998657 323.450348,727.998901 
	C374.447937,728.000854 425.445526,728.000305 476.443115,727.998169 
	C477.775970,727.998108 479.229523,728.295898 480.405060,727.858643 
	C481.420898,727.480774 482.822449,726.274658 482.848816,725.398438 
	C483.051575,718.660828 482.960358,711.914368 482.960358,706.633423 
	C469.253876,702.371277 456.476349,698.898682 444.071198,694.399475 
	C431.706665,689.914978 424.933044,679.896423 421.042755,667.760559 
	C415.899780,651.717102 415.295746,634.970215 415.197235,618.458374 
	C414.747803,543.131287 414.998444,467.799957 415.009796,392.470184 
	C415.010040,390.737122 415.155731,389.004059 415.295349,385.896271 
	C416.743256,387.760742 417.594055,388.464264 417.937164,389.361847 
	C420.154266,395.162506 422.241943,401.012451 424.406342,406.833466 
	C435.513367,436.705750 446.710480,466.544830 457.717834,496.453735 
	C465.675842,518.076965 473.268799,539.834656 481.235077,561.454773 
	C493.384491,594.427734 505.847168,627.285461 517.919556,660.286316 
	C524.882019,679.318848 531.370911,698.525391 537.981873,717.684998 
	C538.788513,720.022705 539.846436,721.106201 542.503723,721.060974 
	C551.833923,720.902283 561.172729,721.140747 570.497131,720.860413 
	C572.049255,720.813843 574.371277,719.264954 574.945862,717.846497 
	C584.706909,693.750549 594.285034,669.580017 603.826233,645.395447 
	C611.924927,624.867249 619.942932,604.307129 627.963867,583.748352 
	C640.617798,551.314636 653.236023,518.867065 665.884888,486.431458 
	C675.922424,460.692108 685.968689,434.956146 696.044556,409.231781 
	C698.441467,403.112244 700.972229,397.045166 703.441406,390.953918 
	C704.756653,392.265839 704.984070,393.313141 704.984253,394.360535 
	C705.000671,487.689484 705.069458,581.018555 704.879150,674.347107 
	C704.862244,682.627441 701.384033,689.703186 693.968506,694.727661 
	C685.571899,700.416992 676.072876,701.616089 666.526917,702.976440 
	C659.754028,703.941650 652.949951,704.687988 646.304504,705.514038 
	C646.304504,713.085999 646.304504,720.348145 646.304504,728.000000 
	C680.238281,728.000000 713.869141,728.000000 748.500000,728.000000 
M1681.500000,343.000000 
	C1625.419067,343.000000 1569.338257,343.000000 1513.256226,343.000000 
	C1513.256226,350.691254 1513.256226,357.631744 1513.256226,364.348175 
	C1519.126831,365.590546 1524.751465,366.594666 1530.273682,368.001129 
	C1535.964111,369.450409 1541.672974,370.974792 1547.165771,373.023987 
	C1560.703979,378.074677 1568.231567,383.655457 1568.083862,401.769745 
	C1567.797241,436.931702 1568.000000,472.097656 1568.000000,507.261932 
	C1568.000000,509.037354 1568.000000,510.812744 1568.000000,512.634521 
	C1513.366211,512.634521 1459.321167,512.634521 1405.285156,512.634521 
	C1405.161011,511.791290 1405.023682,511.306427 1405.027588,510.822723 
	C1405.343994,471.888397 1405.403320,432.949066 1406.142822,394.022644 
	C1406.402832,380.333160 1412.515259,373.954987 1424.811523,371.042755 
	C1436.555786,368.261292 1448.486938,366.269287 1460.696777,363.859039 
	C1460.696777,357.504181 1460.696777,350.452057 1460.696777,343.373657 
	C1391.015137,343.373657 1321.637573,343.373657 1252.255981,343.373657 
	C1252.255981,350.690521 1252.255981,357.630585 1252.255981,363.686188 
	C1264.362793,366.877655 1276.213867,369.351562 1287.612427,373.174530 
	C1301.215698,377.736938 1308.227295,384.707245 1308.161743,402.049622 
	C1307.816406,493.375458 1308.005127,584.703308 1307.968384,676.030457 
	C1307.967529,678.135254 1307.634155,680.267822 1307.219482,682.340149 
	C1304.656860,695.146667 1295.337280,700.136536 1283.734009,701.923950 
	C1273.375488,703.519592 1262.923218,704.506836 1252.000000,705.824280 
	C1252.000000,710.802612 1251.997559,716.094421 1252.000610,721.386169 
	C1252.004395,727.992798 1252.006348,727.998901 1258.539673,727.999084 
	C1323.868652,728.000610 1389.197510,728.000000 1454.526489,727.999695 
	C1455.526367,727.999695 1456.737061,728.352783 1457.479858,727.914673 
	C1458.799194,727.136597 1460.760742,725.936401 1460.832397,724.809753 
	C1461.180542,719.332214 1461.179443,713.808838 1460.840820,708.330261 
	C1460.768677,707.162170 1458.913330,705.361450 1457.648193,705.133118 
	C1450.558960,703.853699 1443.214600,703.642578 1436.313232,701.761353 
	C1428.998047,699.767334 1421.426758,697.323792 1415.144897,693.257385 
	C1406.056396,687.374023 1405.191772,676.877258 1405.121460,667.168213 
	C1404.831299,627.172974 1404.997192,587.174500 1405.010010,547.177185 
	C1405.010498,545.569153 1405.158325,543.961121 1405.235840,542.386902 
	C1459.676880,542.386902 1513.722046,542.386902 1567.811035,542.386902 
	C1567.892700,543.424561 1567.989380,544.081116 1567.989502,544.737671 
	C1567.997925,589.567993 1568.003418,634.398254 1567.975464,679.228577 
	C1567.974609,680.518188 1567.709473,681.831421 1567.402100,683.093384 
	C1564.679565,694.269958 1556.492065,699.775696 1546.139038,701.826355 
	C1536.995117,703.637634 1527.582520,704.332764 1518.251465,704.849182 
	C1514.031860,705.082703 1512.626587,706.313049 1512.940918,710.397156 
	C1513.221436,714.041992 1512.997803,717.725464 1513.000488,721.391846 
	C1513.005249,727.992859 1513.006470,727.998962 1519.545410,727.999146 
	C1584.874268,728.000671 1650.203247,728.000061 1715.532104,727.999756 
	C1716.531982,727.999756 1717.743652,728.353333 1718.485352,727.914551 
	C1719.803467,727.134827 1721.761108,725.932556 1721.832764,724.804077 
	C1722.180542,719.326538 1722.179443,713.803162 1721.840454,708.324524 
	C1721.768433,707.158142 1719.905762,705.353455 1718.643066,705.133484 
	C1711.383667,703.869019 1703.873291,703.680847 1696.802490,701.797058 
	C1689.322754,699.804199 1681.690796,697.233887 1675.115112,693.272583 
	C1665.839966,687.685181 1665.111206,677.387756 1665.093384,667.807068 
	C1664.933228,581.979858 1664.978394,496.152191 1665.043579,410.324738 
	C1665.048462,403.888824 1665.142456,397.368256 1666.156982,391.041290 
	C1667.195190,384.566650 1669.209595,377.799225 1675.860107,374.862366 
	C1682.369751,371.987701 1689.255127,369.678864 1696.202026,368.152191 
	C1704.614868,366.303345 1713.265381,365.536224 1721.696289,364.317902 
	C1721.696289,357.248596 1721.696289,350.319855 1721.696289,343.000000 
	C1708.430908,343.000000 1695.465454,343.000000 1681.500000,343.000000 
M1088.203125,701.918945 
	C1086.202881,702.625244 1084.178711,703.270447 1082.206421,704.047607 
	C1068.818848,709.322876 1054.803589,709.141113 1040.754395,709.036560 
	C1024.038086,708.912170 1008.790833,703.832642 994.794250,695.161987 
	C974.299133,682.465637 957.406372,665.689575 944.939514,645.213745 
	C934.306274,627.749390 925.616089,609.102600 916.032410,590.996826 
	C915.471313,589.936768 914.629150,588.211853 913.879272,588.191101 
	C906.306580,587.981750 898.725891,588.063477 890.515137,588.063477 
	C891.035767,598.617126 891.706299,608.369873 891.957825,618.133423 
	C892.432617,636.564514 892.654480,655.002014 893.003418,673.436401 
	C893.320862,690.205078 893.667480,706.973145 894.000916,723.741516 
	C894.004272,723.908081 894.013733,724.075623 894.001160,724.241272 
	C893.787537,727.061096 895.169250,728.082458 897.895020,728.028015 
	C903.058533,727.924927 908.248840,728.286804 913.380859,727.872009 
	C915.748840,727.680664 918.518433,726.663330 920.218994,725.072449 
	C925.802551,719.848877 930.979858,714.190979 936.040894,708.980408 
	C937.049011,709.171265 937.405212,709.156921 937.676453,709.301697 
	C971.076050,727.140503 1006.896118,736.405029 1044.546265,737.742249 
	C1059.800781,738.284058 1075.196777,736.447266 1090.453491,734.936951 
	C1111.552856,732.848206 1131.186646,725.856995 1149.774292,715.695557 
	C1169.206055,705.072571 1185.362061,691.067078 1197.037720,672.035278 
	C1205.662842,657.976013 1211.626953,642.828003 1212.706543,626.499084 
	C1213.506836,614.394531 1212.726196,601.946533 1210.802490,589.947754 
	C1205.973267,559.825134 1188.350220,538.118408 1163.355103,521.708313 
	C1147.433472,511.255157 1129.641479,505.093079 1111.852295,498.963989 
	C1090.994019,491.777496 1069.994873,485.000977 1049.097168,477.927368 
	C1033.667358,472.704590 1018.707214,466.285370 1006.288147,455.531433 
	C992.647522,443.719757 987.480225,428.457764 989.721313,410.441986 
	C991.821106,393.561615 1000.465698,381.132660 1014.320740,371.931610 
	C1028.542969,362.486755 1044.192871,360.042023 1061.112549,360.776031 
	C1081.700195,361.669220 1098.924438,369.582092 1114.062134,382.684174 
	C1126.911255,393.805450 1136.680542,407.541840 1144.166382,422.695801 
	C1152.002808,438.559601 1159.023438,454.825562 1166.487793,470.875305 
	C1167.190186,472.385406 1168.462646,474.727966 1169.559937,474.779510 
	C1176.961792,475.127045 1184.387817,474.960693 1191.000366,474.960693 
	C1191.000366,461.281555 1191.108154,448.356537 1190.977417,435.433960 
	C1190.722046,410.166565 1190.321167,384.900665 1190.009766,359.633789 
	C1189.942871,354.202148 1190.000000,348.768982 1190.000000,343.000000 
	C1182.539917,343.000000 1175.725220,342.804291 1168.934082,343.119019 
	C1166.890015,343.213715 1164.472656,344.265747 1162.985229,345.678253 
	C1158.431641,350.002655 1154.246582,354.715302 1150.417480,358.750793 
	C1142.503174,355.308014 1135.666382,352.126434 1128.675781,349.329071 
	C1098.971436,337.442688 1068.388672,330.139832 1036.125366,333.084015 
	C1023.576721,334.229156 1010.845459,335.240509 998.669373,338.233032 
	C968.976074,345.530701 942.838379,359.213226 923.495300,383.946381 
	C904.005005,408.867706 897.457947,437.176514 902.267822,467.933014 
	C905.284302,487.222168 912.864502,504.887848 925.524536,520.286072 
	C936.306030,533.399536 949.003906,544.223083 964.408813,550.722656 
	C985.000244,559.410522 1006.354797,566.285950 1027.362915,573.990723 
	C1047.307861,581.305542 1067.527466,587.989807 1087.021729,596.359680 
	C1095.533203,600.014160 1103.400391,606.325806 1109.988159,612.985718 
	C1116.863159,619.935852 1120.904541,628.964478 1122.287720,639.223572 
	C1124.147095,653.012268 1121.700195,665.665405 1114.892700,677.538086 
	C1108.770508,688.215637 1099.706909,695.889648 1088.203125,701.918945 
M1797.566284,639.956116 
	C1781.921631,653.783081 1774.143311,670.669434 1778.052856,691.761841 
	C1781.450439,710.092041 1792.339355,723.449463 1808.955444,730.654968 
	C1828.088989,738.952026 1847.246582,737.179993 1864.124146,723.886841 
	C1876.850708,713.863342 1884.454956,700.627563 1884.921631,684.174133 
	C1885.532104,662.656738 1875.381470,646.674133 1857.648804,635.428467 
	C1848.893433,629.876038 1838.734741,627.614990 1828.470215,628.208679 
	C1817.389526,628.849731 1807.085083,632.656372 1797.566284,639.956116 
z"/>
<path fill="#B97467" opacity="1.000000" stroke="none" 
	d="
M748.000000,728.000000 
	C713.869141,728.000000 680.238281,728.000000 646.304504,728.000000 
	C646.304504,720.348145 646.304504,713.085999 646.304504,705.514038 
	C652.949951,704.687988 659.754028,703.941650 666.526917,702.976440 
	C676.072876,701.616089 685.571899,700.416992 693.968506,694.727661 
	C701.384033,689.703186 704.862244,682.627441 704.879150,674.347107 
	C705.069458,581.018555 705.000671,487.689484 704.984253,394.360535 
	C704.984070,393.313141 704.756653,392.265839 703.441406,390.953918 
	C700.972229,397.045166 698.441467,403.112244 696.044556,409.231781 
	C685.968689,434.956146 675.922424,460.692108 665.884888,486.431458 
	C653.236023,518.867065 640.617798,551.314636 627.963867,583.748352 
	C619.942932,604.307129 611.924927,624.867249 603.826233,645.395447 
	C594.285034,669.580017 584.706909,693.750549 574.945862,717.846497 
	C574.371277,719.264954 572.049255,720.813843 570.497131,720.860413 
	C561.172729,721.140747 551.833923,720.902283 542.503723,721.060974 
	C539.846436,721.106201 538.788513,720.022705 537.981873,717.684998 
	C531.370911,698.525391 524.882019,679.318848 517.919556,660.286316 
	C505.847168,627.285461 493.384491,594.427734 481.235077,561.454773 
	C473.268799,539.834656 465.675842,518.076965 457.717834,496.453735 
	C446.710480,466.544830 435.513367,436.705750 424.406342,406.833466 
	C422.241943,401.012451 420.154266,395.162506 417.937164,389.361847 
	C417.594055,388.464264 416.743256,387.760742 415.295349,385.896271 
	C415.155731,389.004059 415.010040,390.737122 415.009796,392.470184 
	C414.998444,467.799957 414.747803,543.131287 415.197235,618.458374 
	C415.295746,634.970215 415.899780,651.717102 421.042755,667.760559 
	C424.933044,679.896423 431.706665,689.914978 444.071198,694.399475 
	C456.476349,698.898682 469.253876,702.371277 482.960358,706.633423 
	C482.960358,711.914368 483.051575,718.660828 482.848816,725.398438 
	C482.822449,726.274658 481.420898,727.480774 480.405060,727.858643 
	C479.229523,728.295898 477.775970,727.998108 476.443115,727.998169 
	C425.445526,728.000305 374.447937,728.000854 323.450348,727.998901 
	C317.005463,727.998657 317.003845,727.991882 317.000549,721.296570 
	C316.997925,716.007080 317.000000,710.717590 317.000000,705.921997 
	C327.196777,703.879272 336.958649,702.540222 346.361938,699.916016 
	C368.325745,693.786682 375.304688,684.443542 378.760803,664.921265 
	C380.989746,652.330933 381.812225,639.350586 381.864380,626.539368 
	C382.149231,556.543823 382.275208,486.544922 381.864685,416.550629 
	C381.700226,388.516357 364.238342,370.862244 337.382721,366.990021 
	C331.860596,366.193848 326.346252,365.343933 320.391907,364.453522 
	C320.391907,357.767303 320.391907,350.713470 320.391907,343.000000 
	C322.111755,343.000000 323.878174,343.000000 325.644623,343.000000 
	C381.308655,343.000000 436.972870,343.050964 492.636444,342.893707 
	C496.660461,342.882355 498.178619,344.101166 499.542328,347.834900 
	C509.690399,375.620026 520.149597,403.291473 530.503723,431.001404 
	C541.830383,461.314026 553.156494,491.626801 564.468567,521.944885 
	C573.378784,545.825623 582.267273,569.714539 591.703918,595.045227 
	C594.445740,588.068909 596.740601,582.276917 599.000793,576.471375 
	C610.446533,547.071960 621.982544,517.707214 633.297913,488.257660 
	C647.191162,452.098755 661.230591,415.989441 674.490295,379.597565 
	C678.712646,368.009216 680.647522,355.587402 683.704468,343.242737 
	C739.998901,343.242737 796.614197,343.242737 853.614929,343.242737 
	C853.614929,350.275635 853.614929,357.325409 853.614929,363.599121 
	C841.338318,366.228760 829.129700,368.429596 817.155090,371.533112 
	C806.590515,374.271149 801.119690,382.072113 801.096985,394.139679 
	C800.921143,487.634918 800.997131,581.130615 801.021667,674.626221 
	C801.022095,676.423950 801.158569,678.263184 801.548462,680.012451 
	C804.197571,691.898132 813.215820,697.120850 823.753540,699.846558 
	C832.905273,702.213684 842.404602,703.213379 851.681335,705.148315 
	C852.987976,705.420837 854.715393,707.496338 854.847351,708.871704 
	C855.259277,713.165405 854.716614,717.547119 855.075745,721.850281 
	C855.471985,726.598450 853.920166,728.139099 848.988831,728.108521 
	C815.493591,727.900940 781.996521,728.000000 748.000000,728.000000 
z"/>
<path fill="#B97467" opacity="1.000000" stroke="none" 
	d="
M1682.000000,343.000000 
	C1695.465454,343.000000 1708.430908,343.000000 1721.696289,343.000000 
	C1721.696289,350.319855 1721.696289,357.248596 1721.696289,364.317902 
	C1713.265381,365.536224 1704.614868,366.303345 1696.202026,368.152191 
	C1689.255127,369.678864 1682.369751,371.987701 1675.860107,374.862366 
	C1669.209595,377.799225 1667.195190,384.566650 1666.156982,391.041290 
	C1665.142456,397.368256 1665.048462,403.888824 1665.043579,410.324738 
	C1664.978394,496.152191 1664.933228,581.979858 1665.093384,667.807068 
	C1665.111206,677.387756 1665.839966,687.685181 1675.115112,693.272583 
	C1681.690796,697.233887 1689.322754,699.804199 1696.802490,701.797058 
	C1703.873291,703.680847 1711.383667,703.869019 1718.643066,705.133484 
	C1719.905762,705.353455 1721.768433,707.158142 1721.840454,708.324524 
	C1722.179443,713.803162 1722.180542,719.326538 1721.832764,724.804077 
	C1721.761108,725.932556 1719.803467,727.134827 1718.485352,727.914551 
	C1717.743652,728.353333 1716.531982,727.999756 1715.532104,727.999756 
	C1650.203247,728.000061 1584.874268,728.000671 1519.545410,727.999146 
	C1513.006470,727.998962 1513.005249,727.992859 1513.000488,721.391846 
	C1512.997803,717.725464 1513.221436,714.041992 1512.940918,710.397156 
	C1512.626587,706.313049 1514.031860,705.082703 1518.251465,704.849182 
	C1527.582520,704.332764 1536.995117,703.637634 1546.139038,701.826355 
	C1556.492065,699.775696 1564.679565,694.269958 1567.402100,683.093384 
	C1567.709473,681.831421 1567.974609,680.518188 1567.975464,679.228577 
	C1568.003418,634.398254 1567.997925,589.567993 1567.989502,544.737671 
	C1567.989380,544.081116 1567.892700,543.424561 1567.811035,542.386902 
	C1513.722046,542.386902 1459.676880,542.386902 1405.235840,542.386902 
	C1405.158325,543.961121 1405.010498,545.569153 1405.010010,547.177185 
	C1404.997192,587.174500 1404.831299,627.172974 1405.121460,667.168213 
	C1405.191772,676.877258 1406.056396,687.374023 1415.144897,693.257385 
	C1421.426758,697.323792 1428.998047,699.767334 1436.313232,701.761353 
	C1443.214600,703.642578 1450.558960,703.853699 1457.648193,705.133118 
	C1458.913330,705.361450 1460.768677,707.162170 1460.840820,708.330261 
	C1461.179443,713.808838 1461.180542,719.332214 1460.832397,724.809753 
	C1460.760742,725.936401 1458.799194,727.136597 1457.479858,727.914673 
	C1456.737061,728.352783 1455.526367,727.999695 1454.526489,727.999695 
	C1389.197510,728.000000 1323.868652,728.000610 1258.539673,727.999084 
	C1252.006348,727.998901 1252.004395,727.992798 1252.000610,721.386169 
	C1251.997559,716.094421 1252.000000,710.802612 1252.000000,705.824280 
	C1262.923218,704.506836 1273.375488,703.519592 1283.734009,701.923950 
	C1295.337280,700.136536 1304.656860,695.146667 1307.219482,682.340149 
	C1307.634155,680.267822 1307.967529,678.135254 1307.968384,676.030457 
	C1308.005127,584.703308 1307.816406,493.375458 1308.161743,402.049622 
	C1308.227295,384.707245 1301.215698,377.736938 1287.612427,373.174530 
	C1276.213867,369.351562 1264.362793,366.877655 1252.255981,363.686188 
	C1252.255981,357.630585 1252.255981,350.690521 1252.255981,343.373657 
	C1321.637573,343.373657 1391.015137,343.373657 1460.696777,343.373657 
	C1460.696777,350.452057 1460.696777,357.504181 1460.696777,363.859039 
	C1448.486938,366.269287 1436.555786,368.261292 1424.811523,371.042755 
	C1412.515259,373.954987 1406.402832,380.333160 1406.142822,394.022644 
	C1405.403320,432.949066 1405.343994,471.888397 1405.027588,510.822723 
	C1405.023682,511.306427 1405.161011,511.791290 1405.285156,512.634521 
	C1459.321167,512.634521 1513.366211,512.634521 1568.000000,512.634521 
	C1568.000000,510.812744 1568.000000,509.037354 1568.000000,507.261932 
	C1568.000000,472.097656 1567.797241,436.931702 1568.083862,401.769745 
	C1568.231567,383.655457 1560.703979,378.074677 1547.165771,373.023987 
	C1541.672974,370.974792 1535.964111,369.450409 1530.273682,368.001129 
	C1524.751465,366.594666 1519.126831,365.590546 1513.256226,364.348175 
	C1513.256226,357.631744 1513.256226,350.691254 1513.256226,343.000000 
	C1569.338257,343.000000 1625.419067,343.000000 1682.000000,343.000000 
z"/>
<path fill="#B97467" opacity="1.000000" stroke="none" 
	d="
M1088.548096,701.751709 
	C1099.706909,695.889648 1108.770508,688.215637 1114.892700,677.538086 
	C1121.700195,665.665405 1124.147095,653.012268 1122.287720,639.223572 
	C1120.904541,628.964478 1116.863159,619.935852 1109.988159,612.985718 
	C1103.400391,606.325806 1095.533203,600.014160 1087.021729,596.359680 
	C1067.527466,587.989807 1047.307861,581.305542 1027.362915,573.990723 
	C1006.354797,566.285950 985.000244,559.410522 964.408813,550.722656 
	C949.003906,544.223083 936.306030,533.399536 925.524536,520.286072 
	C912.864502,504.887848 905.284302,487.222168 902.267822,467.933014 
	C897.457947,437.176514 904.005005,408.867706 923.495300,383.946381 
	C942.838379,359.213226 968.976074,345.530701 998.669373,338.233032 
	C1010.845459,335.240509 1023.576721,334.229156 1036.125366,333.084015 
	C1068.388672,330.139832 1098.971436,337.442688 1128.675781,349.329071 
	C1135.666382,352.126434 1142.503174,355.308014 1150.417480,358.750793 
	C1154.246582,354.715302 1158.431641,350.002655 1162.985229,345.678253 
	C1164.472656,344.265747 1166.890015,343.213715 1168.934082,343.119019 
	C1175.725220,342.804291 1182.539917,343.000000 1190.000000,343.000000 
	C1190.000000,348.768982 1189.942871,354.202148 1190.009766,359.633789 
	C1190.321167,384.900665 1190.722046,410.166565 1190.977417,435.433960 
	C1191.108154,448.356537 1191.000366,461.281555 1191.000366,474.960693 
	C1184.387817,474.960693 1176.961792,475.127045 1169.559937,474.779510 
	C1168.462646,474.727966 1167.190186,472.385406 1166.487793,470.875305 
	C1159.023438,454.825562 1152.002808,438.559601 1144.166382,422.695801 
	C1136.680542,407.541840 1126.911255,393.805450 1114.062134,382.684174 
	C1098.924438,369.582092 1081.700195,361.669220 1061.112549,360.776031 
	C1044.192871,360.042023 1028.542969,362.486755 1014.320740,371.931610 
	C1000.465698,381.132660 991.821106,393.561615 989.721313,410.441986 
	C987.480225,428.457764 992.647522,443.719757 1006.288147,455.531433 
	C1018.707214,466.285370 1033.667358,472.704590 1049.097168,477.927368 
	C1069.994873,485.000977 1090.994019,491.777496 1111.852295,498.963989 
	C1129.641479,505.093079 1147.433472,511.255157 1163.355103,521.708313 
	C1188.350220,538.118408 1205.973267,559.825134 1210.802490,589.947754 
	C1212.726196,601.946533 1213.506836,614.394531 1212.706543,626.499084 
	C1211.626953,642.828003 1205.662842,657.976013 1197.037720,672.035278 
	C1185.362061,691.067078 1169.206055,705.072571 1149.774292,715.695557 
	C1131.186646,725.856995 1111.552856,732.848206 1090.453491,734.936951 
	C1075.196777,736.447266 1059.800781,738.284058 1044.546265,737.742249 
	C1006.896118,736.405029 971.076050,727.140503 937.676453,709.301697 
	C937.405212,709.156921 937.049011,709.171265 936.040894,708.980408 
	C930.979858,714.190979 925.802551,719.848877 920.218994,725.072449 
	C918.518433,726.663330 915.748840,727.680664 913.380859,727.872009 
	C908.248840,728.286804 903.058533,727.924927 897.895020,728.028015 
	C895.169250,728.082458 893.787537,727.061096 894.001160,724.241272 
	C894.013733,724.075623 894.004272,723.908081 894.000916,723.741516 
	C893.667480,706.973145 893.320862,690.205078 893.003418,673.436401 
	C892.654480,655.002014 892.432617,636.564514 891.957825,618.133423 
	C891.706299,608.369873 891.035767,598.617126 890.515137,588.063477 
	C898.725891,588.063477 906.306580,587.981750 913.879272,588.191101 
	C914.629150,588.211853 915.471313,589.936768 916.032410,590.996826 
	C925.616089,609.102600 934.306274,627.749390 944.939514,645.213745 
	C957.406372,665.689575 974.299133,682.465637 994.794250,695.161987 
	C1008.790833,703.832642 1024.038086,708.912170 1040.754395,709.036560 
	C1054.803589,709.141113 1068.818848,709.322876 1082.206421,704.047607 
	C1084.178711,703.270447 1086.202881,702.625244 1088.548096,701.751709 
z"/>
<path fill="#B97467" opacity="1.000000" stroke="none" 
	d="
M1797.824463,639.703613 
	C1807.085083,632.656372 1817.389526,628.849731 1828.470215,628.208679 
	C1838.734741,627.614990 1848.893433,629.876038 1857.648804,635.428467 
	C1875.381470,646.674133 1885.532104,662.656738 1884.921631,684.174133 
	C1884.454956,700.627563 1876.850708,713.863342 1864.124146,723.886841 
	C1847.246582,737.179993 1828.088989,738.952026 1808.955444,730.654968 
	C1792.339355,723.449463 1781.450439,710.092041 1778.052856,691.761841 
	C1774.143311,670.669434 1781.921631,653.783081 1797.824463,639.703613 
z"/>
</svg>